<svg id="tessa" xmlns="http://www.w3.org/2000/svg" width="8.467mm" height="8.467mm" viewBox="0 0 24 24">
  <defs>
    <style>
      .cls-1 {
        fill: #9452BA;
      }
    </style>
  </defs>
  <title>icon-tessa-dam</title>
  <path id="tessa-2" data-name="tessa" class="cls-1" d="M3.253,16.776c0-.117.07-.848,1.458-3.765l.108-.205a6.008,6.008,0,0,1,1.4-1.66,8.32,8.32,0,0,1-1.047-1.064,9.356,9.356,0,0,1-1.911-4.5l-.05-.553.544.112A34.606,34.606,0,0,0,8,5.727c1.543.081,3.419.608,4,1.81.585-1.2,2.461-1.729,4-1.81a33.947,33.947,0,0,0,4.242-.593l.546-.114-.05.554a9.333,9.333,0,0,1-1.911,4.5,8.211,8.211,0,0,1-1.044,1.063,5.878,5.878,0,0,1,1.4,1.676l.093.194c1.389,2.917,1.459,3.648,1.459,3.765v.593l-.555-.207a20.35,20.35,0,0,0-3.833-.422C13.542,16.569,12.372,15.26,12,14.7l-.007.007c-.365.546-1.535,1.859-4.351,2.031a20.039,20.039,0,0,0-3.836.423l-.552.209Zm9.56-2.36a3.1,3.1,0,0,0,.538.512,5.482,5.482,0,0,0,3.055.99c1.755.107,2.779.228,3.362.32a27.8,27.8,0,0,0-1.226-2.874l-.082-.17a5.2,5.2,0,0,0-1.321-1.522A33.865,33.865,0,0,1,12.813,14.416ZM6.864,11.677A5.272,5.272,0,0,0,5.545,13.2l-.1.18a28,28,0,0,0-1.22,2.862c.582-.093,1.6-.213,3.362-.319a5.5,5.5,0,0,0,3.055-.989,3.191,3.191,0,0,0,.539-.514l-.362-.2a35.458,35.458,0,0,1-3.4-2.121S7.011,11.791,6.864,11.677ZM4.174,6.056a8.816,8.816,0,0,0,1.64,3.515c1.217,1.532,4.327,3.33,5.545,4V8.331c0-.579-.523-.971-.962-1.2a6.193,6.193,0,0,0-2.444-.584A32.536,32.536,0,0,1,4.174,6.056Zm15.652,0a32.519,32.519,0,0,1-3.778.5,6.185,6.185,0,0,0-2.445.584c-.44.227-.962.619-.962,1.2v5.24c.2-.11.443-.246.713-.4l.173-.1a28.143,28.143,0,0,0,3.347-2.244l.245-.2a7.674,7.674,0,0,0,1.067-1.061A8.8,8.8,0,0,0,19.826,6.054Z"/>
</svg>
