<svg xmlns="http://www.w3.org/2000/svg" width="97" height="17" viewBox="0 0 97 17">
  <path fill="#5BC2E7" fill-rule="evenodd" d="M20.1150799,8.53140396 C20.9973895,9.25908075 21.7463194,10.0995039 22.2132235,11.0575977 C24.2180554,15.1715416 24.307159,16.1578815 24.3111192,16.2374298 C24.3113034,16.242868 23.3371949,15.8827797 18.4666523,15.5947092 C14.9695422,15.3878709 13.3266858,13.9558051 12.6782353,13.1646028 L12.6903622,13.1579871 L12.741689,13.1317861 C12.8359787,13.0835384 12.9450883,13.0270907 13.0677898,12.9628681 C13.4174036,12.7798785 13.8065766,12.5709256 14.2255042,12.3393939 C15.4229247,11.6776068 16.6206417,10.9665722 17.7409375,10.2326327 C18.5844375,9.68003052 19.3487895,9.13716091 20.0187844,8.60829719 L20.1150799,8.53140396 Z M4.52947115,8.53140396 L4.62576662,8.60829719 C5.29576153,9.13716091 6.06011359,9.68003052 6.90361356,10.2326327 C8.02390936,10.9665722 9.22162632,11.6776068 10.4190468,12.3393939 C10.8379744,12.5709256 11.2271474,12.7798785 11.5767613,12.9628681 C11.6585622,13.0056832 11.7343224,13.0450427 11.8036778,13.0808208 L11.902862,13.1317861 L11.9541888,13.1579871 L11.9663158,13.1646028 C11.3178652,13.9558051 9.67500881,15.3878709 6.17789874,15.5947092 C1.30735616,15.8827797 0.33324765,16.242868 0.333431843,16.2374298 C0.337392005,16.1578815 0.426495644,15.1715416 2.43132753,11.0575977 C2.8982316,10.0995039 3.6471615,9.25908075 4.52947115,8.53140396 Z M40.7550909,0.180990319 L40.7550909,2.50900379 L36.052075,2.50900379 L36.052075,16.16 L33.5963101,16.16 L33.5963101,2.50900379 L28.8721125,2.50900379 L28.8721125,0.180990319 L40.7550909,0.180990319 Z M63.5216258,0.190259685 C64.530287,0.190259685 65.4355468,0.349121444 66.2374325,0.666849727 C67.0393182,0.98457801 67.7327624,1.42081744 68.3177859,1.97558111 L67.7125922,2.95902088 C67.5915528,3.18092635 67.4049533,3.29187742 67.152788,3.29187742 C67.0014888,3.29187742 66.830019,3.23640188 66.6383733,3.12544915 C66.4467277,3.01449641 66.2122175,2.89093727 65.9348357,2.754768 C65.6574538,2.61859874 65.3271222,2.49251798 64.943831,2.37652194 C64.5605397,2.2605259 64.106649,2.20252875 63.5821451,2.20252875 C63.1282476,2.20252875 62.7197459,2.2605259 62.3566279,2.37652194 C61.9935098,2.49251798 61.6833512,2.65137974 61.4261426,2.85311198 C61.168934,3.05484422 60.972248,3.28935444 60.8360787,3.55664966 C60.6999094,3.82394488 60.6318258,4.11393063 60.6318258,4.42661561 C60.6318258,4.81999348 60.7452985,5.14780346 60.9722473,5.41005538 C61.1991961,5.67230729 61.4992683,5.89925266 61.8724729,6.0908983 C62.2456776,6.28254393 62.6693089,6.45149215 63.1433797,6.59774802 C63.6174505,6.7440039 64.1041222,6.90034404 64.6034095,7.06677314 C65.1026968,7.23320224 65.5893685,7.41728015 66.0634393,7.6190124 C66.5375101,7.82074464 66.9611414,8.07290616 67.3343461,8.37550453 C67.7075507,8.67810289 68.007623,9.04878033 68.2345717,9.48754796 C68.4615205,9.92631559 68.5749932,10.4533332 68.5749932,11.0686165 C68.5749932,11.7746794 68.4489124,12.4277777 68.1967471,13.0279311 C67.9445818,13.6280845 67.5713828,14.1475373 67.0771388,14.5863049 C66.5828948,15.0250725 65.9777071,15.3705338 65.2615577,15.6226991 C64.5454082,15.8748644 63.7183184,16.0009452 62.7802635,16.0009452 C61.7110826,16.0009452 60.7427823,15.8269537 59.8753337,15.4789656 C59.007885,15.1309775 58.2715734,14.6846516 57.6663767,14.1399746 L58.3018301,13.1111453 C58.382523,12.9800193 58.4783443,12.8791547 58.5892971,12.8085484 C58.7002498,12.7379421 58.8465035,12.7026395 59.0280625,12.7026395 C59.2096215,12.7026395 59.4012643,12.7732447 59.6029965,12.9144573 C59.8047288,13.0556699 60.0493254,13.21201 60.3367939,13.3834824 C60.6242623,13.5549548 60.9722452,13.711295 61.380753,13.8525075 C61.7892608,13.9937201 62.3011487,14.0643253 62.9164321,14.0643253 C63.4409359,14.0643253 63.8998699,13.9962417 64.2932477,13.8600725 C64.6866256,13.7239032 65.0144356,13.5398253 65.2766875,13.3078332 C65.5389394,13.0758411 65.7331038,12.8085499 65.8591864,12.5059516 C65.9852691,12.2033532 66.0483095,11.8805864 66.0483095,11.5376416 C66.0483095,11.1140039 65.9348368,10.7634994 65.707888,10.4861176 C65.4809392,10.2087357 65.180867,9.9717039 64.8076624,9.77501497 C64.4344577,9.57832603 64.0083048,9.40685619 63.5291907,9.26060032 C63.0500766,9.11434444 62.5608833,8.96052591 62.0615959,8.79914012 C61.5623086,8.63775432 61.0731153,8.45367641 60.5940012,8.24690086 C60.1148871,8.04012532 59.6887342,7.78039895 59.3155295,7.46771397 C58.9423249,7.15502899 58.6422527,6.76922187 58.4153039,6.31028101 C58.1883551,5.85134016 58.0748824,5.2940632 58.0748824,4.63843341 C58.0748824,4.0534099 58.19592,3.49108971 58.4379986,2.95145596 C58.6800773,2.41182221 59.0331035,1.93775855 59.4970876,1.52925075 C59.9610718,1.12074296 60.5309568,0.795454599 61.2067598,0.553375907 C61.8825629,0.311297216 62.6541771,0.190259685 63.5216258,0.190259685 Z M76.6543291,0.190259685 C77.6629903,0.190259685 78.5682502,0.349121444 79.3701359,0.666849727 C80.1720215,0.98457801 80.8654657,1.42081744 81.4504892,1.97558111 L80.8452955,2.95902088 C80.7242562,3.18092635 80.5376567,3.29187742 80.2854913,3.29187742 C80.1341922,3.29187742 79.9627223,3.23640188 79.7710767,3.12544915 C79.5794311,3.01449641 79.3449209,2.89093727 79.067539,2.754768 C78.7901572,2.61859874 78.4598256,2.49251798 78.0765343,2.37652194 C77.6932431,2.2605259 77.2393523,2.20252875 76.7148485,2.20252875 C76.260951,2.20252875 75.8524493,2.2605259 75.4893312,2.37652194 C75.1262132,2.49251798 74.8160545,2.65137974 74.5588459,2.85311198 C74.3016373,3.05484422 74.1049513,3.28935444 73.9687821,3.55664966 C73.8326128,3.82394488 73.7645292,4.11393063 73.7645292,4.42661561 C73.7645292,4.81999348 73.8780019,5.14780346 74.1049507,5.41005538 C74.3318994,5.67230729 74.6319716,5.89925266 75.0051763,6.0908983 C75.3783809,6.28254393 75.8020123,6.45149215 76.2760831,6.59774802 C76.7501538,6.7440039 77.2368256,6.90034404 77.7361129,7.06677314 C78.2354002,7.23320224 78.7220719,7.41728015 79.1961427,7.6190124 C79.6702135,7.82074464 80.0938448,8.07290616 80.4670495,8.37550453 C80.8402541,8.67810289 81.1403263,9.04878033 81.3672751,9.48754796 C81.5942239,9.92631559 81.7076966,10.4533332 81.7076966,11.0686165 C81.7076966,11.7746794 81.5816158,12.4277777 81.3294505,13.0279311 C81.0772852,13.6280845 80.7040861,14.1475373 80.2098421,14.5863049 C79.7155981,15.0250725 79.1104105,15.3705338 78.394261,15.6226991 C77.6781116,15.8748644 76.8510218,16.0009452 75.9129668,16.0009452 C74.843786,16.0009452 73.8754857,15.8269537 73.0080371,15.4789656 C72.1405884,15.1309775 71.4042768,14.6846516 70.79908,14.1399746 L71.4345334,13.1111453 C71.5152263,12.9800193 71.6110477,12.8791547 71.7220004,12.8085484 C71.8329532,12.7379421 71.9792069,12.7026395 72.1607659,12.7026395 C72.3423249,12.7026395 72.5339677,12.7732447 72.7356999,12.9144573 C72.9374321,13.0556699 73.1820288,13.21201 73.4694973,13.3834824 C73.7569657,13.5549548 74.1049486,13.711295 74.5134564,13.8525075 C74.9219642,13.9937201 75.4338521,14.0643253 76.0491354,14.0643253 C76.5736393,14.0643253 77.0325732,13.9962417 77.4259511,13.8600725 C77.819329,13.7239032 78.147139,13.5398253 78.4093909,13.3078332 C78.6716428,13.0758411 78.8658072,12.8085499 78.9918898,12.5059516 C79.1179725,12.2033532 79.1810128,11.8805864 79.1810128,11.5376416 C79.1810128,11.1140039 79.0675402,10.7634994 78.8405914,10.4861176 C78.6136426,10.2087357 78.3135704,9.9717039 77.9403657,9.77501497 C77.5671611,9.57832603 77.1410081,9.40685619 76.661894,9.26060032 C76.18278,9.11434444 75.6935866,8.96052591 75.1942993,8.79914012 C74.695012,8.63775432 74.2058187,8.45367641 73.7267046,8.24690086 C73.2475905,8.04012532 72.8214375,7.78039895 72.4482329,7.46771397 C72.0750282,7.15502899 71.774956,6.76922187 71.5480073,6.31028101 C71.3210585,5.85134016 71.2075858,5.2940632 71.2075858,4.63843341 C71.2075858,4.0534099 71.3286233,3.49108971 71.570702,2.95145596 C71.8127807,2.41182221 72.1658068,1.93775855 72.629791,1.52925075 C73.0937752,1.12074296 73.6636602,0.795454599 74.3394632,0.553375907 C75.0152662,0.311297216 75.7868805,0.190259685 76.6543291,0.190259685 Z M91.1184586,0.16 C91.9758207,0.16 92.7373485,0.301210452 93.4030649,0.583635593 C94.0687813,0.866060733 94.6285799,1.25943271 95.0824774,1.76376331 C95.5363749,2.26809392 95.8793146,2.8783248 96.1113067,3.59447427 C96.3432988,4.31062373 96.4592931,5.09736768 96.4592931,5.95472971 L96.4592931,15.7588677 L95.2640355,15.7588677 C95.0017836,15.7588677 94.7899679,15.7185219 94.6285821,15.637829 C94.4671963,15.5571361 94.3612885,15.3856662 94.3108554,15.1234143 L94.0082586,13.7012091 C93.6047941,14.0643272 93.2114221,14.3896155 92.8281309,14.677084 C92.4448396,14.9645524 92.0413812,15.2066275 91.6177434,15.4033164 C91.1941057,15.6000053 90.7427366,15.7487806 90.2636225,15.8496468 C89.7845085,15.9505129 89.2524476,16.0009452 88.6674241,16.0009452 C88.072314,16.0009452 87.5150371,15.9177319 86.9955765,15.7513028 C86.476116,15.5848737 86.0247469,15.3352338 85.6414556,15.0023756 C85.2581644,14.6695174 84.9530489,14.2484076 84.7261001,13.7390337 C84.4991514,13.2296598 84.3856787,12.6269938 84.3856787,11.9310175 C84.3856787,11.3258208 84.5521053,10.7433277 84.8849635,10.1835207 C85.2178217,9.62371374 85.7549257,9.12695554 86.4962917,8.69323122 C87.2376577,8.2595069 88.2084796,7.90395915 89.4087864,7.62657732 C90.6090933,7.34919548 92.0766733,7.19033373 93.8115706,7.14998728 L93.8115706,5.95472971 C93.8115706,4.76450948 93.5568875,3.86429285 93.0475136,3.25405281 C92.5381397,2.64381277 91.7841767,2.33869733 90.7856021,2.33869733 C90.1299723,2.33869733 89.5777386,2.42191064 89.1288843,2.58833974 C88.6800301,2.75476884 88.2917014,2.94136836 87.9638865,3.14814391 C87.6360716,3.35491946 87.3536507,3.54151899 87.1166153,3.70794809 C86.8795799,3.87437719 86.6450697,3.95759049 86.4130776,3.95759049 C86.2315186,3.95759049 86.0726568,3.9096798 85.9364876,3.81385699 C85.8003183,3.71803417 85.6918888,3.59951825 85.6111959,3.45830568 L85.127041,2.59590466 C85.9743164,1.77888907 86.8871411,1.16865819 87.8655425,0.765193704 C88.8439439,0.361729217 89.9282384,0.16 91.1184586,0.16 Z M49.1482753,0.190259685 C50.066157,0.190259685 50.9134197,0.344078213 51.6900889,0.651719884 C52.466758,0.959361555 53.1375076,1.40316583 53.7023579,1.98314603 C54.2672082,2.56312623 54.7084909,3.27926495 55.0262191,4.13158368 C55.3439474,4.98390241 55.5028092,5.95472427 55.5028092,7.04407838 C55.5028092,7.46771609 55.4574201,7.75013699 55.3666406,7.89134956 C55.2758611,8.03256213 55.1043913,8.10316736 54.852226,8.10316736 L44.654712,8.10316736 C44.6748853,9.07148213 44.8060093,9.91370161 45.048088,10.6298511 C45.2901666,11.3460005 45.6230199,11.9436233 46.0466576,12.4227374 C46.4702953,12.9018515 46.9746183,13.2599209 47.5596418,13.4969562 C48.1446653,13.7339916 48.8002853,13.8525075 49.5265214,13.8525075 C50.2023244,13.8525075 50.7848175,13.7743375 51.2740182,13.617995 C51.7632189,13.4616525 52.1843286,13.2927043 52.53736,13.1111453 C52.8903915,12.9295862 53.1854204,12.760638 53.4224558,12.6042955 C53.6594912,12.447953 53.863742,12.369783 54.0352145,12.369783 C54.2571199,12.369783 54.4285898,12.4555179 54.5496291,12.6269903 L55.3061212,13.6104301 C54.973263,14.0138945 54.5748478,14.3643991 54.1108637,14.6619541 C53.6468795,14.9595092 53.1501213,15.2041059 52.6205742,15.3957515 C52.091027,15.5873971 51.5438365,15.7311292 50.9789863,15.826952 C50.414136,15.9227748 49.8543374,15.9706855 49.2995737,15.9706855 C48.2404794,15.9706855 47.2646144,15.7916508 46.3719492,15.4335761 C45.479284,15.0755014 44.7076698,14.5510054 44.0570833,13.8600725 C43.4064968,13.1691395 42.8996521,12.314312 42.5365341,11.2955641 C42.173416,10.2768163 41.9918598,9.10678686 41.9918598,7.78544067 C41.9918598,6.71625978 42.1557647,5.71770015 42.4835796,4.78973183 C42.8113945,3.86176351 43.2829366,3.05736826 43.8982199,2.37652194 C44.5135033,1.69567562 45.2649446,1.16109319 46.1525665,0.772758625 C47.0401883,0.384424057 48.038748,0.190259685 49.1482753,0.190259685 Z M93.8115706,8.85965949 C92.5709173,8.90000594 91.5168822,8.99834893 90.6494335,9.15469142 C89.7819849,9.31103391 89.0759326,9.51528474 88.5312556,9.76745004 C87.9865785,10.0196153 87.5906849,10.3171659 87.3435629,10.6601108 C87.0964409,11.0030556 86.9728818,11.3863411 86.9728818,11.8099788 C86.9728818,12.2134433 87.0384438,12.5614262 87.1695697,12.8539379 C87.3006957,13.1464497 87.4772088,13.3860031 87.6991142,13.5726055 C87.9210197,13.7592078 88.1832677,13.895375 88.485866,13.9811112 C88.7884644,14.0668474 89.1162744,14.1097149 89.4693058,14.1097149 C89.9433766,14.1097149 90.3770944,14.0618042 90.7704723,13.9659814 C91.1638501,13.8701585 91.5345276,13.7339913 91.8825157,13.5574756 C92.2305038,13.3809599 92.563357,13.1666226 92.8810853,12.9144573 C93.1988136,12.662292 93.5089723,12.3748279 93.8115706,12.0520563 L93.8115706,8.85965949 Z M24.6445511,-2.06057393e-13 C24.6445511,-2.06057393e-13 24.3448254,3.24079389 21.9470198,6.19351721 C19.5944558,9.09052877 12.9140619,12.4728198 12.6628091,12.5994221 L12.6555232,12.6030873 L12.6555232,4.03298795 C12.6555232,2.08851162 15.457636,1.00674714 18.27538,0.864211704 C21.093124,0.721676269 24.6445511,-2.06057393e-13 24.6445511,-2.06057393e-13 Z M2.30926389e-14,-2.06057393e-13 C2.30926389e-14,-2.06057393e-13 3.55142705,0.721676269 6.36917106,0.864211704 C9.18691507,1.00674714 11.9890279,2.08851162 11.9890279,4.03298795 L11.9890279,12.6030873 C11.9890279,12.6030873 5.09533685,9.14624053 2.69753127,6.19351721 C0.299725697,3.24079389 2.30926389e-14,-2.06057393e-13 2.30926389e-14,-2.06057393e-13 Z M49.2087947,2.17226906 C47.9076217,2.17226906 46.8838459,2.54798973 46.1374366,3.29944234 C45.3910273,4.05089494 44.9270501,5.09232203 44.7454911,6.42375483 L53.0820344,6.42375483 C53.0820344,5.79838488 52.9962995,5.22597822 52.824827,4.7065177 C52.6533546,4.18705717 52.4011931,3.73820966 52.0683349,3.35996171 C51.7354767,2.98171375 51.3294967,2.68920639 50.8503826,2.48243084 C50.3712685,2.27565529 49.824078,2.17226906 49.2087947,2.17226906 Z" transform="translate(0 .6)"/>
</svg>
